HIERARCHY
ROOT Hips
{
	OFFSET -3.958830 18.904000 13.208200
	CHANNELS 6 Xposition Yposition Zposition Zrotation Yrotation Xrotation 
	JOINT LHipJoint
	{
		OFFSET 0.000000 0.000000 0.000000
		CHANNELS 3 Zrotation Yrotation Xrotation
		JOINT LeftUpLeg
		{
			OFFSET 1.800000 -1.400000 0.085000
			CHANNELS 3 Zrotation Yrotation Xrotation
			JOINT LeftLeg
			{
				OFFSET 2.215000 -6.000000 0.000000
				CHANNELS 3 Zrotation Yrotation Xrotation
				JOINT LeftFoot
				{
					OFFSET 2.500000 -6.900000 0.000000
					CHANNELS 3 Zrotation Yrotation Xrotation
					JOINT LeftToeBase
					{
						OFFSET 0.200000 -0.500000 1.950000
						CHANNELS 3 Zrotation Yrotation Xrotation
						End Site
						{
							OFFSET 0.000000 0.000000 0.000000
						}
					}
				}
			}
		}
	}
	JOINT RHipJoint
	{
		OFFSET 0.000000 0.000000 0.000000
		CHANNELS 3 Zrotation Yrotation Xrotation
		JOINT RightUpLeg
		{
			OFFSET -1.800000 -1.400000 0.085000
			CHANNELS 3 Zrotation Yrotation Xrotation
			JOINT RightLeg
			{
				OFFSET -2.215000 -6.000000 0.000000
				CHANNELS 3 Zrotation Yrotation Xrotation
				JOINT RightFoot
				{
					OFFSET -2.500000 -6.900000 0.000000
					CHANNELS 3 Zrotation Yrotation Xrotation
					JOINT RightToeBase
					{
						OFFSET -0.200000 -0.500000 1.950000
						CHANNELS 3 Zrotation Yrotation Xrotation
						End Site
						{
							OFFSET 0.000000 0.000000 0.000000
						}
					}
				}
			}
		}
	}
	JOINT LowerBack
	{
		OFFSET 0.000000 0.000000 0.000000
		CHANNELS 3 Zrotation Yrotation Xrotation
		JOINT Spine
		{
			OFFSET -0.087000 1.940000 -0.288900
			CHANNELS 3 Zrotation Yrotation Xrotation
			JOINT Spine1
			{
				OFFSET 0.000000 1.950000 0.060000
				CHANNELS 3 Zrotation Yrotation Xrotation
				JOINT Neck
				{
					OFFSET 0.000000 0.000000 0.000000
					CHANNELS 3 Zrotation Yrotation Xrotation
					JOINT Neck1
					{
						OFFSET 0.000000 1.600000 0.340000
						CHANNELS 3 Zrotation Yrotation Xrotation
						JOINT Head
						{
							OFFSET 0.000000 1.667000 -0.240000
							CHANNELS 3 Zrotation Yrotation Xrotation
							End Site
							{
								OFFSET 0.000000 0.000000 0.000000
							}
						}
					}
				}
				JOINT LeftShoulder
				{
					OFFSET 0.000000 0.000000 0.000000
					CHANNELS 3 Zrotation Yrotation Xrotation
					JOINT LeftArm
					{
						OFFSET 2.700000 1.550000 -0.730000
						CHANNELS 3 Zrotation Yrotation Xrotation
						JOINT LeftForeArm
						{
							OFFSET 5.450000 0.000000 0.000000
							CHANNELS 3 Zrotation Yrotation Xrotation
							JOINT LeftHand
							{
								OFFSET 3.450000 0.000000 0.000000
								CHANNELS 3 Zrotation Yrotation Xrotation
								JOINT LeftHandIndex1
								{
									OFFSET 0.750000 0.000000 0.000000
									CHANNELS 3 Zrotation Yrotation Xrotation
									End Site
									{
										OFFSET 0.000000 0.000000 0.000000
									}
								}
							}
						}
					}
				}
				JOINT RightShoulder
				{
					OFFSET 0.000000 0.000000 0.000000
					CHANNELS 3 Zrotation Yrotation Xrotation
					JOINT RightArm
					{
						OFFSET -2.700000 1.550000 -0.730000
						CHANNELS 3 Zrotation Yrotation Xrotation
						JOINT RightForeArm
						{
							OFFSET -5.450000 0.000000 0.000000
							CHANNELS 3 Zrotation Yrotation Xrotation
							JOINT RightHand
							{
								OFFSET -3.450000 0.000000 0.000000
								CHANNELS 3 Zrotation Yrotation Xrotation
								JOINT RightHandIndex1
								{
									OFFSET -0.750000 0.000000 0.000000
									CHANNELS 3 Zrotation Yrotation Xrotation
									End Site
									{
										OFFSET 0.000000 0.000000 0.000000
									}
								}
							}
						}
					}
				}
			}
		}
	}
}
MOTION
Frames: 9
Frame Time: 0.016667
-1.553630 17.209600 -2.506250 0.589187 31.147806 -8.621053 -15.884562 14.395369 3.298902 -0.188275 0.944129 10.757639 -3.691325 9.314137 29.542591 0.044038 7.334862 2.252198 0.929410 0.317360 0.991860 17.561829 -9.584550 3.413536 -0.098082 6.932795 -24.080453 10.077553 -10.171274 40.047923 -1.003206 -5.830457 2.579246 0.178160 -0.255050 0.098540 -2.012775 -4.924637 -8.276099 4.406458 -1.635267 26.501782 9.048476 -1.542711 3.610999 1.842463 6.032639 -7.600486 6.099341 -9.414138 46.513253 -6.965530 -2.964450 -25.293690 -22.890990 -6.397277 1.225181 -9.783609 10.867814 -7.551779 41.609987 -51.498248 -17.914788 -3.192018 2.521321 1.115760 -0.205460 0.195650 0.171930 21.157921 4.067961 4.940270 41.489202 -8.193045 -24.088154 -21.344208 79.638504 -22.494226 1.270706 -1.270859 -0.261060 0.276220 -0.315220 -0.631810 
-1.582270 17.197920 -2.545690 0.428071 31.849682 -9.384449 -15.944990 14.540527 3.284387 0.374159 0.947427 11.063748 -3.608918 9.454951 29.894157 0.051536 7.476491 2.211910 0.878670 0.251400 0.946840 17.504496 -9.318295 3.556267 -1.561107 7.654466 -25.509883 12.141337 -11.496500 42.027057 -1.109245 -6.385793 2.399009 0.143190 -0.227150 0.105210 -1.777961 -5.518910 -8.372808 4.106692 -1.341548 29.254284 10.086583 -1.061119 2.435508 1.820768 5.611572 -7.764028 5.209424 -9.308479 45.702131 -6.684670 -3.336490 -26.402260 -22.761485 -7.192774 1.428111 -6.527164 11.545518 -6.586504 35.246373 -51.394696 -14.909151 -3.225011 2.600450 1.142680 -0.202450 0.181760 0.160070 21.015705 5.622501 5.139411 38.503824 -8.591435 -24.373045 -32.592543 78.008985 -28.634572 1.192566 -0.966994 -0.286300 0.290210 -0.268990 -0.635390 
-1.620070 17.168610 -2.602180 0.820083 33.569320 -9.323362 -16.039959 14.747204 3.264967 0.384491 1.020688 11.269440 -2.315518 9.000653 30.121299 0.201619 7.310774 2.248844 0.891320 0.314780 0.889190 17.416973 -8.940869 3.758239 -4.672683 8.065592 -28.444829 15.224199 -13.430266 44.137225 -1.267917 -7.122901 2.160538 0.104820 -0.278690 0.134780 -1.412437 -6.418330 -8.477737 2.860060 -0.940667 31.959269 12.395843 -0.851355 1.112771 1.501473 4.468887 -8.519353 2.858032 -8.815485 44.919826 -5.310640 -3.927430 -27.102490 -21.109383 -8.047370 2.234811 -4.298272 11.906884 -5.577739 25.146873 -49.739169 -9.989123 -3.152293 2.865817 1.073710 -0.238260 0.213870 0.179970 19.959578 7.749251 5.684632 35.398857 -9.772729 -24.367147 -45.247540 74.591264 -33.803916 1.166963 -0.687060 -0.164810 0.185800 -0.308410 -0.565700 
-1.653610 17.125220 -2.645460 0.738341 34.864334 -8.776724 -16.089708 14.863370 3.188778 0.698590 1.250649 11.717102 -0.717346 8.285659 28.990918 0.233957 7.062144 2.349346 0.830650 0.270440 0.803540 17.392840 -8.559922 4.046361 -7.496978 8.548217 -31.894747 17.885938 -15.163633 45.907976 -1.371856 -7.797734 1.959299 0.055680 -0.258620 0.113250 -1.227254 -7.103439 -8.596603 2.986791 -0.934571 33.984044 14.202477 -0.549826 -0.629855 1.114140 2.669328 -8.972538 -0.416063 -8.185795 43.010995 -3.963990 -4.805260 -27.025950 -18.321193 -7.165090 2.420815 -4.915736 10.225718 -4.713153 17.796733 -46.460334 -6.212269 -3.119083 2.959873 1.030620 -0.244380 0.178240 0.180280 17.863319 8.435787 6.067800 33.773698 -10.505486 -23.750645 -55.741141 72.109937 -37.980294 1.114871 -0.380950 -0.148270 0.161560 -0.290910 -0.526520 
-1.676640 17.075490 -2.666540 -0.046395 36.062966 -7.512045 -16.054006 14.753865 3.041307 1.976998 1.271766 11.785406 -0.561472 7.932723 26.397384 0.230552 6.808412 2.486067 0.723600 0.139970 0.728250 17.455145 -8.345604 4.405243 -9.477794 9.045759 -35.983862 19.770440 -16.425668 46.938060 -1.412451 -8.292389 1.818541 -0.020570 -0.181630 0.124910 -1.392014 -7.029780 -8.746697 4.713030 -1.995608 34.602582 14.510757 -0.335395 -4.010601 0.778829 2.490567 -9.639338 -0.043616 -8.320903 41.049199 -5.318610 -4.573090 -22.557600 -14.832948 -5.376392 2.461392 -7.520543 8.756002 -3.825524 14.176739 -42.944568 -3.915520 -3.181776 2.976226 0.963180 -0.177400 0.114820 0.182310 14.833780 6.828683 6.244222 36.415555 -9.776014 -22.558476 -65.373087 70.133179 -42.439940 1.017131 -0.026902 -0.163190 0.140220 -0.254620 -0.502400 
-1.676410 17.032420 -2.662460 -1.047576 36.326428 -5.571285 -15.950501 14.546816 2.926002 3.528081 1.204174 11.565745 -1.962419 7.970128 22.852689 0.197919 6.590843 2.626388 0.584090 -0.022790 0.607670 17.583042 -8.272151 4.682331 -10.247527 9.446612 -39.885925 19.661055 -16.604642 47.337191 -1.337615 -8.417724 1.814871 -0.104910 -0.044700 0.125760 -1.837764 -6.581831 -8.867638 7.799831 -4.488886 35.311373 13.229127 -0.305372 -10.519728 0.019568 1.620547 -9.210851 -0.487740 -6.837932 38.043344 -5.948810 -2.979510 -18.405740 -9.284487 0.879896 1.165094 -14.640606 6.456096 -3.066050 12.713290 -40.458987 -2.407667 -3.309690 2.991201 0.898660 -0.077130 0.006300 0.185930 10.189795 1.427952 5.398100 41.256163 -6.939093 -20.065478 -70.187418 72.388002 -45.855491 0.803176 0.444287 -0.214990 0.142070 -0.184890 -0.480760 
-1.662660 16.999080 -2.634950 -1.640898 37.377323 -1.561577 -15.810681 14.223800 2.752328 4.074144 0.753416 9.156865 -2.702662 7.573278 20.290665 0.126019 6.186672 2.825930 0.473260 -0.160390 0.501200 17.750727 -8.294728 5.017113 -11.006211 9.395991 -45.098693 18.541805 -16.387802 47.372422 -1.202606 -8.385448 1.849001 -0.167590 0.088890 0.124510 -2.432496 -5.812885 -8.942167 11.470779 -7.046994 32.191871 11.683114 -0.982802 -16.541816 -0.958216 0.721640 -8.312445 -1.442888 -5.665148 35.110368 -6.076800 -2.113540 -12.422330 -5.614857 7.338687 -0.237735 -20.591097 5.410949 -2.218179 14.220810 -39.133760 -1.768742 -3.449846 3.049328 0.802030 0.027000 -0.110090 0.212270 7.799027 -4.770028 4.472454 44.284897 -7.031488 -16.556021 -82.173482 76.002837 -56.040750 0.369782 1.857870 -0.253980 0.126560 -0.150260 -0.445770 
-1.640720 16.994300 -2.590000 -2.041174 38.119438 1.831317 -15.697967 14.049284 2.679840 4.719974 0.349853 7.174007 -3.841807 7.395678 18.067397 0.075355 5.917441 2.956281 0.385680 -0.283060 0.421000 17.872291 -8.363251 5.129277 -10.915410 9.045935 -48.011119 16.432807 -15.307847 46.161032 -0.998998 -7.943703 1.988028 -0.225720 0.175950 0.122900 -2.880323 -5.377986 -8.935889 15.028317 -8.935187 27.881055 10.408780 -2.145123 -19.104676 -1.490196 -0.840004 -8.017697 -3.808738 -4.459727 32.886157 -6.029230 -1.783910 -7.872000 -3.883046 11.841440 -0.794880 -25.439279 7.687747 -2.540489 16.365338 -39.637890 -1.815266 -3.532029 3.090891 0.739000 0.086670 -0.200710 0.219820 6.640198 -8.767229 4.495465 45.819752 -7.955808 -10.444099 -96.838165 74.787981 -70.924119 0.489758 3.480525 -0.281700 0.099940 -0.114940 -0.423270 
-1.632720 17.002460 -2.504960 -1.484932 38.663815 4.610025 -15.648693 14.070826 2.712781 4.755671 0.194865 5.719885 -4.211869 7.191674 16.977460 0.084684 5.678141 3.052582 0.348610 -0.319930 0.364070 17.890739 -8.583348 4.974649 -9.694380 8.435602 -48.138641 12.656026 -13.050190 44.017145 -0.745701 -7.052271 2.296589 -0.263990 0.201740 0.117350 -3.084442 -5.182717 -8.830372 16.031280 -9.544075 23.891581 10.485660 -2.977136 -19.768215 -1.830343 -2.028714 -8.157428 -5.765418 -3.821986 31.728836 -6.031130 -1.638400 -5.181520 -3.173095 14.667367 -0.693767 -30.031740 11.292548 -3.781773 19.389065 -41.672147 -2.555593 -3.538143 3.107183 0.689090 0.106440 -0.234860 0.241050 6.435164 -11.170063 4.997271 46.673414 -10.000043 -5.114009 -106.744959 72.302642 -88.406206 1.684944 2.735823 -0.265140 0.064640 -0.121750 -0.392040 
